<svg version="1.1" xmlns="http://www.w3.org/2000/svg" xmlns:xlink="http://www.w3.org/1999/xlink" width="32.61043" height="28.14285" viewBox="0,0,32.61043,28.14285"><g transform="translate(-223.69479,-165.92857)"><g data-paper-data="{&quot;isPaintingLayer&quot;:true}" fill="#ffffff" fill-rule="nonzero" stroke="none" stroke-width="0.5" stroke-linecap="butt" stroke-linejoin="miter" stroke-miterlimit="10" stroke-dasharray="" stroke-dashoffset="0" style="mix-blend-mode: normal"><path d="M229.38761,186.95856c0.30368,-0.82967 0.64522,-1.65181 1.00194,-2.46416c-1.71671,-1.49099 -3.42794,-2.98884 -5.10536,-4.51306l-0.02319,-0.04551l-0.01085,0.01128l-1.13852,-1.18319c-0.25753,-0.26764 -0.41684,-0.63739 -0.41684,-1.0458c0,-0.81683 0.63716,-1.47897 1.42314,-1.47897c0.03425,0 0.06823,0.00126 0.10189,0.00373l2.58922,0.16817l-0.00038,0.00626c0.01602,-0.00082 0.03206,-0.0016 0.04809,-0.00232c1.87889,-0.08512 3.90435,0.29773 5.88163,0.57503c1.18389,-2.74666 2.32771,-5.49878 3.40766,-8.30399l0.02221,-0.02697l-0.00898,-0.00424l0.79988,-1.82877c0.21736,-0.52773 0.7216,-0.89748 1.30893,-0.89748c0.68586,0 1.25839,0.50419 1.39314,1.17538l0.63359,2.85324c0.78224,1.98314 0.42611,4.81658 0.56262,6.89287c0.01094,0.16622 0.02133,0.33252 0.03127,0.49889c3.80389,0.00353 7.61646,-0.09565 11.40763,-0.09564h1.58575c0.78598,0 1.42314,0.66216 1.42314,1.47897c0,0.63988 -0.39102,1.18485 -0.93828,1.39093l-2.62181,1.05959l-0.0979,-0.26161c-3.27576,1.95593 -6.82318,3.46421 -10.42405,4.81087c0.07853,1.61687 0.19157,3.22972 0.38503,4.83251l0.45322,1.56996c0.04513,0.14418 0.06952,0.29808 0.06952,0.4579c0,0.81683 -0.63716,1.47897 -1.42314,1.47897c-0.32043,0 -0.61615,-0.11006 -0.854,-0.29578l-2.28286,-1.73977l0.00862,-0.0122c-0.03535,-0.02256 -0.07054,-0.04545 -0.10554,-0.06865c-1.41416,-0.93758 -2.43429,-2.3929 -3.65878,-3.59013c-0.20552,0.07246 -0.41074,0.14506 -0.61558,0.21781c-0.87518,0.31082 -1.77171,0.5608 -2.66148,0.82887c-0.21953,0.77841 -0.37912,1.55722 -0.45169,2.33007c0,0 -0.15716,1.46993 -1.5716,1.30661c-1.41444,-0.16333 -1.25729,-1.63326 -1.25729,-1.63326c0.01808,-0.15503 0.03876,-0.30996 0.06189,-0.46474c0.48534,-1.22184 0.84526,-2.82533 1.01176,-3.96912c0.01879,-0.00753 0.03759,-0.01504 0.05639,-0.02253zM233.88752,183.6754c0.47505,0.41138 0.94971,0.82279 1.42328,1.23472c1.33155,-0.42331 2.66515,-0.84344 3.98615,-1.29734c-0.04044,-1.11957 -0.0752,-2.23965 -0.11862,-3.35855c-1.22707,-0.02615 -2.45275,-0.06888 -3.67609,-0.13504c-0.20736,0.47405 -0.41573,0.94824 -0.62498,1.42281c-0.30465,0.69095 -0.64334,1.40414 -0.98975,2.1334zM247.38493,180.25828c-1.78616,0.01977 -3.57391,0.03683 -5.36032,0.03007c0.02769,0.76209 0.05164,1.52478 0.07661,2.28747c0.56286,-0.22629 1.12136,-0.46391 1.67431,-0.71592c1.19805,-0.54599 2.40135,-1.0798 3.6094,-1.60161zM238.66994,172.6215c-0.62758,1.55595 -1.27286,3.10027 -1.93145,4.64108c0.76474,0.02776 1.53038,0.04763 2.29667,0.06128c-0.00566,-0.09088 -0.01145,-0.18174 -0.0174,-0.27257c-0.09385,-1.43348 -0.30374,-2.94825 -0.3478,-4.42979zM232.46137,179.92004c-1.09511,-0.05421 -2.16303,-0.06596 -3.17524,-0.25419c0.78265,0.69256 1.57044,1.38093 2.36019,2.06731c0.22022,-0.47919 0.43637,-0.95381 0.64337,-1.4233c0.05731,-0.12996 0.11453,-0.25991 0.17168,-0.38982zM239.5892,188.92617c-0.06159,-0.72608 -0.1111,-1.45351 -0.15251,-2.18182c-0.47894,0.16994 -0.95782,0.33834 -1.43615,0.50586c0.5823,0.52843 1.12043,1.06764 1.58867,1.67595z"/></g></g></svg>