<svg version="1.1" xmlns="http://www.w3.org/2000/svg" xmlns:xlink="http://www.w3.org/1999/xlink" width="514.02621" height="373.9234" viewBox="0,0,514.02621,373.9234"><g transform="translate(14.46638,3.35122)"><g data-paper-data="{&quot;isPaintingLayer&quot;:true}" fill="#ffffff" fill-rule="nonzero" stroke="none" stroke-width="0" stroke-linecap="butt" stroke-linejoin="miter" stroke-miterlimit="10" stroke-dasharray="" stroke-dashoffset="0" style="mix-blend-mode: normal"><path d="M-14.46637,185.28475v-20.71449h514.02621v20.71449z"/><path d="M6.67721,367.65383v-371.00505h30.46376v371.00505z"/><path d="M53.46084,368.74183v-372.09304h29.37577v372.09305z"/><path d="M95.89251,369.82982v-193.66246h23.93581v193.66246z"/><path d="M131.53296,42.33606v-42.51056h72.3439v42.51056z"/><path d="M131.79621,369.82982v-344.95701h28.28778v344.95701z"/><path d="M180.86099,170.67951v-145.16231h23.09795v145.16231z"/><path d="M138.7655,369.61286v-152.78754h65.99698v152.78754z"/><path d="M222.84387,369.61286v-236.86589h30.73832v236.86589z"/><path d="M264.00658,370.09252v-196.18282h30.73833v196.18282z"/><path d="M264.48625,156.308v-24.40985h30.73833v24.40985z"/><path d="M309.68967,370.57218v-238.67403h30.73833v238.67403z"/><path d="M353.56461,369.2437v-196.18282h30.73833v196.18282z"/><path d="M396.43992,153.47967v-20.44494h71.90455v20.44494z"/><path d="M396.26382,369.40541v-220.36965h28.28778v220.36965z"/><path d="M445.32859,180.8016v-31.35418h23.09794v31.35418z"/><path d="M403.23312,369.18845v-152.78754h65.99698v152.78754z"/></g></g></svg>