<svg version="1.1" xmlns="http://www.w3.org/2000/svg" xmlns:xlink="http://www.w3.org/1999/xlink" width="36.90667" height="30.92395" viewBox="0,0,36.90667,30.92395"><g transform="translate(-221.54665,-164.53803)"><g data-paper-data="{&quot;isPaintingLayer&quot;:true}" fill="#ff0000" fill-rule="nonzero" stroke="none" stroke-width="0.5" stroke-linecap="butt" stroke-linejoin="miter" stroke-miterlimit="10" stroke-dasharray="" stroke-dashoffset="0" style="mix-blend-mode: normal"><path d="M221.54666,192.83422c0,-2.5 2.5,-2.5 2.5,-2.5h0.625c0.4384,0 0.88067,0.00558 1.3257,0.01446c1.49067,-5.90621 4.85847,-10.87086 6.95458,-16.50682c0.62049,-1.66835 1.15907,-3.37033 1.875,-5c0.51979,-1.18319 0.31681,-2.94872 1.43118,-3.60315c1.48414,-0.87157 3.55445,-0.89447 5.15656,-0.26555c2.39227,0.93909 2.88569,4.04862 4.1128,5.88868c1.73843,2.60677 3.76806,4.88947 5.54727,7.38561c1.72867,2.42525 2.69313,4.53137 4.86053,6.69877c2.33742,4.06702 4.6309,4.92301 -0.93193,8.3227c-0.98466,0.60177 -2.30332,0.15345 -3.45671,0.1903c-2.77599,0.08869 -5.68887,-0.32092 -8.44454,-0.01873c-2.76377,0.30308 -5.38042,1.62251 -8.18411,1.88156c-3.32882,0.30757 -6.89658,0.01217 -10.24634,0.01217h-0.625c0,0 -2.5,0 -2.5,-2.5zM231.14416,190.4688c1.10812,0.00284 2.20735,-0.02667 3.28116,-0.12242c2.75502,-0.24565 5.33531,-1.56185 8.06589,-1.86844c0.21748,-0.02442 6.16268,-0.01873 6.55546,-0.01873c0.83333,0 1.66759,-0.03918 2.5,0c0.42522,0.02001 0.85282,0.05456 1.27141,0.13275c-0.2202,-0.12288 -0.43822,-0.25013 -0.66004,-0.36975c-3.44144,-3.44144 -5.70164,-7.58129 -8.3422,-11.54062c-1.25755,-1.8856 -2.72541,-3.64706 -3.77079,-5.65806c-0.30376,-0.58434 -0.89824,-2.47487 -0.70984,-1.84381c0.53786,1.80159 -1.04432,4.67763 -1.69382,6.39685c-1.92327,5.09085 -4.95684,9.65176 -6.49722,14.89222z"/></g></g></svg>