<svg version="1.1" xmlns="http://www.w3.org/2000/svg" xmlns:xlink="http://www.w3.org/1999/xlink" width="482.2825" height="208.50462" viewBox="0,0,482.2825,208.50462"><g transform="translate(0.4299,-61.25072)"><g data-paper-data="{&quot;isPaintingLayer&quot;:true}" fill-rule="nonzero" stroke="none" stroke-width="0.5" stroke-linecap="butt" stroke-linejoin="miter" stroke-miterlimit="10" stroke-dasharray="" stroke-dashoffset="0" style="mix-blend-mode: normal"><path d="M476.85261,225.42336c0,-1.38071 1.11929,-2.5 2.5,-2.5c1.38071,0 2.5,1.11929 2.5,2.5c0,1.38071 -1.11929,2.5 -2.5,2.5c-1.38071,0 -2.5,-1.11929 -2.5,-2.5z" fill="#04ff00"/><path d="M120.06433,132.44658c0.05342,0.24423 -0.19081,0.29764 -0.19081,0.29764l-0.25987,0.05684c-1.55066,0.33916 -2.05767,1.70021 -2.81476,3.00949c-2.97809,2.10558 -4.73925,4.8033 -7.30974,7.38036c-2.48371,2.49005 -4.42298,5.42593 -6.90527,7.88653c-2.48613,2.4644 -5.19283,4.68048 -7.86283,6.94354c-2.30493,2.88516 -4.42794,5.18678 -7.38526,7.40481c-2.83725,2.12798 -5.40932,4.30053 -7.94177,6.78357c-2.51122,2.46222 -5.65809,4.17391 -8.74059,5.80287c-2.51221,2.50778 -5.2081,4.58155 -8.04502,6.70886c-2.8023,2.10137 -5.56768,4.26467 -8.48118,6.20955c-2.98118,1.99007 -5.37079,4.32333 -8.12749,6.55519c-2.74205,2.22 -5.3,4.47792 -7.78787,6.98063c-2.48932,2.50416 -4.95916,4.83633 -6.92458,7.77558c-1.87667,2.79322 -4.92445,5.15795 -7.16207,7.70746c-2.32044,2.64386 -4.64029,5.23754 -7.13218,7.72118c-2.46581,2.45765 -5.37266,4.59869 -8.27001,6.51968c-1.94717,1.29101 -4.15242,2.10977 -6.10015,3.40826c-0.55076,0.36717 -1.03274,0.81242 -1.56841,0.99911c-0.05473,0.15228 -0.23437,0.15228 -0.23437,0.15228c-0.16667,0 -0.33333,0 -0.5,0h-0.5c-0.13807,0 -0.25,-0.11193 -0.25,-0.25c0,-0.13807 0.11193,-0.25 0.25,-0.25c0.00009,0 0.50018,0 0.50028,0c2.65497,-1.32656 5.61316,-2.81008 8.12635,-4.47637c2.87012,-1.90294 5.75073,-4.02256 8.19334,-6.45709c2.48404,-2.47582 4.79621,-5.0613 7.10936,-7.69686c2.21665,-2.52561 5.27693,-4.88148 7.12223,-7.65557c1.98388,-2.96685 4.47346,-5.32302 6.98562,-7.85015c2.50025,-2.51515 5.0722,-4.78571 7.82786,-7.01673c2.76719,-2.24036 5.17182,-4.5847 8.1645,-6.58244c2.90587,-1.93979 5.66384,-4.09785 8.45881,-6.19372c2.84177,-2.13096 5.50823,-4.22769 8.04826,-6.71128c3.05214,-1.65356 6.18395,-3.30299 8.68726,-5.75746c2.54759,-2.49788 5.13767,-4.68589 7.99182,-6.82654c2.94177,-2.20637 5.02172,-4.49438 7.32661,-7.3532c2.66302,-2.27768 5.38014,-4.48268 7.86948,-6.95026c2.481,-2.45932 4.42035,-5.39527 6.90327,-7.88453c2.55073,-2.55724 4.27434,-5.34473 7.29445,-7.36433c0.78126,-1.43599 1.39682,-2.79332 3.07722,-3.16086l0.25987,-0.05684c0,0 0.24423,-0.05342 0.29764,0.19081z" fill="#ffffff"/><path d="M197.8263,93.74992c-0.24992,0.00618 -0.25611,-0.24374 -0.25611,-0.24374l-0.00009,-0.00366c-0.01113,-0.44988 -0.62926,-0.6435 -0.94431,-0.96485c-0.34643,-0.35335 0.01351,-0.69747 -0.16109,-1.05998c-0.41622,-0.86418 -1.75082,-1.71875 -2.39441,-2.46192c-2.26609,-2.6178 -4.12841,-5.6646 -5.72123,-8.75744c-2.02412,-2.91348 -4.40574,-5.23343 -6.92388,-7.72588c-2.95963,-2.00425 -5.33325,-4.38868 -7.85934,-6.90999c-2.67247,-1.95969 -4.58494,-3.07457 -7.80637,-3.87993c0,0 -0.24254,-0.06063 -0.1819,-0.30317c0.06063,-0.24254 0.30317,-0.1819 0.30317,-0.1819c3.2831,0.82078 5.29375,1.9816 8.01048,3.98536c2.534,2.51522 4.90004,4.88702 7.85136,6.9033c2.56749,2.5206 4.98553,4.8914 7.03497,7.85455c1.58898,3.06956 3.41917,6.08679 5.67077,8.68786c0.68103,0.78706 2.02185,1.64826 2.46685,2.5722c0.13443,0.2791 -0.14923,0.70569 0.06764,0.9269c0.2354,0.2401 0.77429,-0.10825 0.99867,0.14218c0.07685,0.08578 0.08439,0.99566 0.08846,1.16033l0.00009,0.00366c0,0 0.00618,0.24992 -0.24374,0.25611z" fill="#ffffff"/><path d="M336.86505,249.25407c0.24593,0.04493 0.201,0.29086 0.201,0.29086l-0.00757,0.04146c-0.26025,1.4245 -1.02669,1.05999 -1.99847,1.92295c-1.83233,1.61507 -4.14951,2.04349 -6.14933,3.24044c-1.02198,0.61169 -1.55253,1.81534 -2.71335,2.23105c-2.81567,0.97742 -6.41696,3.53873 -8.10427,6.049c-1.68574,2.50795 -3.9623,4.51309 -6.09616,6.64694c0,0 -0.17678,0.17678 -0.35355,0c-0.17678,-0.17678 0,-0.35355 0,-0.35355c2.11034,-2.11034 4.36787,-4.09243 6.03474,-6.57232c1.73759,-2.58509 5.45935,-5.23716 8.35527,-6.24243c1.09923,-0.36683 1.64779,-1.60551 2.62054,-2.18773c1.97944,-1.18475 4.27158,-1.57104 6.07412,-3.18528c0.93759,-0.8326 1.62425,-0.46562 1.83861,-1.63894l0.00757,-0.04146c0,0 0.04493,-0.24593 0.29086,-0.201z" fill="#ffffff"/><path d="M375.90531,151.16666c-0.20833,0 -0.20833,-0.20833 -0.20833,-0.20833v-0.12877c0,-2.81924 -0.44633,-6.06605 0.44874,-8.75126c0.86993,-2.60981 0.38459,-5.87098 0.38459,-8.61997c0,-2.91667 0,-5.83333 0,-8.75c0,-2.91667 0,-5.83333 0,-8.75c0,-2.5 0,-5 0,-7.5c0,0 0,-0.20833 0.20833,-0.20833c0.20833,0 0.20833,0.20833 0.20833,0.20833c0,2.5 0,5 0,7.5c0,2.91667 0,5.83333 0,8.75c0,2.91667 0,5.83333 0,8.75c0,2.79873 0.4802,6.0932 -0.40597,8.75173c-0.87893,2.6368 -0.42736,5.8499 -0.42736,8.6195v0.12877c0,0 0,0.20833 -0.20833,0.20833z" fill="#ffffff"/><path d="M367.8201,219.75c-0.25,0 -0.25,-0.25 -0.25,-0.25v-0.5c0,-0.57124 0.01159,-1.1071 0.07322,-1.67678c0.3314,-0.03586 0.7643,0.2357 1,0c0.13768,-0.13768 -0.07322,-2.02122 -0.07322,-2.32322c0,-2.33333 0,-4.66667 0,-7c0,-3.5 0,-7 0,-10.5c0,-2.33333 0,-4.66667 0,-7c0,-0.5811 -0.1709,-1.5893 0,-2.26358c0,-0.07881 0,-0.15761 0,-0.23642v-0.5c0,-0.13807 0.11193,-0.25 0.25,-0.25c0.13807,0 0.25,0.11193 0.25,0.25c0,0.06399 0,0.62798 0,0.69196c0.58617,2.846 0,6.52455 0,9.30804c0,3.5 0,7 0,10.5c0,2.5 0,5 0,7.5c0,1.04655 0.42923,2.51714 -1.07322,2.17678c0.10014,0.44204 0.07322,0.87095 0.07322,1.32322v0.5c0,0 0,0.25 -0.25,0.25z" fill="#ffffff"/></g></g></svg>