<svg version="1.1" xmlns="http://www.w3.org/2000/svg" xmlns:xlink="http://www.w3.org/1999/xlink" width="481.58139" height="168.92886" viewBox="0,0,481.58139,168.92886"><g transform="translate(-0.2712,-105.69655)"><g data-paper-data="{&quot;isPaintingLayer&quot;:true}" fill-rule="nonzero" stroke="none" stroke-width="0.5" stroke-linecap="butt" stroke-linejoin="miter" stroke-miterlimit="10" stroke-dasharray="" stroke-dashoffset="0" style="mix-blend-mode: normal"><path d="M476.85259,225.42336c0,-1.38071 1.11929,-2.5 2.5,-2.5c1.38071,0 2.5,1.11929 2.5,2.5c0,1.38071 -1.11929,2.5 -2.5,2.5c-1.38071,0 -2.5,-1.11929 -2.5,-2.5z" fill="#04ff00"/><path d="M481.77655,226.63907c0,0.25 -0.25,0.25 -0.25,0.25c-2.5,0 -5.00318,0 -7.50318,0c-2.48527,0 -8.26238,-1.02265 -10.07693,0.60705c-0.8174,0.69786 -1.55487,0.13929 -2.45084,0.469c-2.27501,0.83717 -5.03481,1.35368 -7.21263,2.79987c-2.62318,1.74194 -5.51934,3.08186 -8.24009,4.65748l-0.34668,0.31826c-0.04457,0.04119 -0.10417,0.06636 -0.16964,0.06636c-0.13807,0 -0.25,-0.11193 -0.25,-0.25c0,0 0,0 0,0l0.00001,-0.5c0,-0.33334 0.00003,-0.66669 0.00008,-1.00003c0.00045,-2.99862 1.31786,-4.90301 2.02073,-7.68396c0.2268,-0.89735 -0.09802,-1.676 0.45546,-2.4872c0.82909,-1.17286 0.40164,-2.34805 0.67448,-3.71734c0.424,-2.12785 1.68855,-4.0213 2.29869,-6.08792c0.58077,-1.96714 0.22647,-3.97464 0.75297,-5.90643c0.37925,-1.3915 1.20392,-2.78941 1.67079,-4.18374c1.11558,-3.32628 2.45728,-6.41116 3.58698,-9.75429c1.1219,-3.32004 2.49959,-6.55119 3.8525,-9.78321c1.34692,-3.2177 2.54869,-6.5575 4.08848,-9.68691c1.53532,-3.11852 3.2732,-6.19337 4.3756,-9.49158c1.10851,-3.31649 2.22735,-6.68263 3.78199,-9.82233c1.55707,-3.1446 2.76123,-6.41626 4.24699,-9.58964c0.78124,-1.59883 -1.04335,-5.33015 -2.69843,-5.9912c-0.68197,-0.27238 -2.06482,0.05629 -2.81544,0.0445c-2.50168,2.39672 -5.18277,4.62892 -7.77197,6.93115c-2.60299,2.31448 -4.94409,4.94827 -7.36624,7.45115c-2.43398,2.5151 -4.86797,5.0302 -7.30195,7.5453c-2.43398,2.5151 -4.86797,5.0302 -7.30195,7.5453c-2.44016,2.52149 -4.87456,5.04871 -7.32159,7.56353c-2.9156,1.95232 -5.84111,3.88998 -8.76202,5.83434c-2.91352,1.93944 -5.82703,3.87888 -8.74055,5.81832c-2.82265,1.87162 -6.52437,2.9695 -9.63184,4.32652c-3.41341,0.80744 -6.82988,1.60219 -10.24491,2.40277c-3.41733,0.80112 -6.81769,1.59846 -10.27215,2.22231c-3.3149,0.59864 -7.11067,0.76783 -10.11225,2.23131c-3.18588,1.55247 -6.31403,2.79925 -9.37332,4.62651c-3.0009,1.79238 -6.15822,3.30658 -9.16413,5.11011c-3.00132,1.80078 -6.00292,3.60105 -9.00632,5.39835c-3.00331,1.79725 -6.00663,3.5945 -9.00994,5.39175c-2.98533,1.78648 -5.93504,3.85029 -9.12857,5.23208c-3.19247,1.38133 -6.39435,3.17988 -9.84366,3.68078c-3.46921,0.50378 -6.89009,1.10937 -10.32684,1.80036c-3.45487,0.69463 -6.75459,1.60928 -10.12209,2.64554c-3.36335,1.03498 -6.66278,1.96102 -9.82428,3.51395c-0.6648,0.32655 -1.97799,1.17983 -2.60527,0.23531c-0.28929,-0.43559 0.11501,-1.69543 0.2079,-2.16646c0.38677,-1.96126 0.77183,-3.91226 1.05542,-5.89129c0.49646,-3.46461 0.99293,-6.92922 1.48939,-10.39383c0.49638,-3.464 1.27079,-6.89577 1.94251,-10.32999c0.67185,-3.43491 1.3437,-6.86982 2.01556,-10.30473c0.67185,-3.43491 1.3437,-6.86982 2.01556,-10.30473c0.67666,-3.45949 1.34173,-6.86676 2.33032,-10.25156c0.98124,-3.35964 1.96248,-6.71927 2.94373,-10.07891c0.98124,-3.35964 1.96248,-6.71927 2.94373,-10.07891c0.98124,-3.35964 1.96248,-6.71927 2.94373,-10.07891c0.98124,-3.35964 1.96248,-6.71927 2.94373,-10.07891c0.98124,-3.35964 1.96248,-6.71927 2.94373,-10.07891c0.98124,-3.35964 1.96248,-6.71927 2.94373,-10.07891c0.88643,-3.03503 2.23741,-7.01636 2.21975,-10.17529c0.00044,-0.17201 -0.00915,-1.15254 -0.16222,-1.25629c-0.38504,-0.26097 -1.74504,0.62369 -2.08361,0.79317c-1.94775,0.97502 -3.70836,2.10098 -5.50715,3.32388c-2.51086,2.4719 -5.12397,4.72651 -7.84141,6.96786c-2.70007,2.22702 -5.40014,4.45405 -8.1002,6.68107c-2.70117,2.22793 -5.3572,4.48818 -7.97664,6.8117c-2.61835,2.32255 -5.2367,4.6451 -7.85506,6.96765c-2.4725,2.19318 -5.07254,5.3266 -7.96741,6.90684c-2.90826,1.57588 -5.37746,4.5737 -7.94694,6.71683c-2.68705,2.2412 -5.33028,4.53221 -7.97976,6.81764c-2.64484,2.28143 -5.09447,4.78621 -7.59908,7.22031c-2.50995,2.43929 -5.01991,4.87858 -7.52986,7.31787c-2.50995,2.43929 -5.01991,4.87858 -7.52986,7.31787c-2.50995,2.43929 -5.01991,4.87858 -7.52986,7.31787c-2.50806,2.43745 -4.95694,4.96251 -7.54814,7.31113c-2.59346,2.35031 -5.18692,4.70062 -7.78038,7.05094c-2.59346,2.35031 -5.18692,4.70062 -7.78038,7.05094c-2.59346,2.35031 -5.18692,4.70062 -7.78038,7.05094c-2.59346,2.35031 -5.18692,4.70062 -7.78038,7.05094c-2.59346,2.35031 -5.18692,4.70062 -7.78038,7.05094c-2.59346,2.35031 -5.18692,4.70062 -7.78038,7.05094c-2.59346,2.35031 -5.18692,4.70062 -7.78038,7.05094c-2.59346,2.35031 -5.18692,4.70062 -7.78038,7.05094c-2.63428,2.38731 -5.47397,4.30771 -8.41348,6.30219c-2.89625,1.96512 -5.79251,3.93025 -8.68876,5.89537c-2.89625,1.96512 -5.79251,3.93025 -8.68876,5.89537c-2.89116,1.96167 -5.76733,4.30669 -8.94324,5.77842c-0.43887,-0.27434 -1.59325,-0.82247 -1.8365,-1.29394c-0.29049,-0.56303 -0.02781,-1.97458 -0.02781,-2.61463c0.00003,-2.00026 -0.0037,-4.00059 0.00312,-6.00085c0.01219,-3.57671 0.44731,-6.93601 1.00695,-10.46363c0.5484,-3.45677 1.0968,-6.91354 1.6452,-10.37031c0.5484,-3.45677 1.0968,-6.91354 1.6452,-10.37031c0.5484,-3.45677 1.0968,-6.91354 1.6452,-10.37031c0.54862,-3.45817 1.09492,-6.89894 1.46372,-10.38123c0.36862,-3.48053 0.73724,-6.96107 1.10586,-10.4416c0.36862,-3.48053 0.73724,-6.96107 1.10586,-10.4416c0.36862,-3.48053 0.73724,-6.96107 1.10586,-10.4416c0.36862,-3.48053 0.73724,-6.96107 1.10586,-10.4416c0.36862,-3.48053 0.73724,-6.96107 1.10586,-10.4416c0.36862,-3.48053 0.73724,-6.96107 1.10586,-10.4416c0.36439,-3.44062 0.9854,-6.95873 0.9168,-10.41836c-0.03304,-1.66634 -0.06608,-3.33268 -0.09912,-4.99902c-0.00378,-0.19045 0.10376,-1.67572 -0.07202,-1.75287c-0.44432,-0.195 -2.31529,1.36579 -2.79679,1.60654c-3.13057,1.56528 -6.25996,3.13294 -9.39209,4.6951c-3.18614,1.5891 -6.42923,2.6854 -9.8096,3.7863c-3.33977,1.08768 -6.78996,1.62174 -10.11573,2.7402c-3.32269,1.11654 -6.41609,2.69129 -9.48714,4.35495c-3.07745,1.66713 -6.15489,3.33426 -9.23234,5.00139c-3.07745,1.66713 -6.15489,3.33426 -9.23234,5.00139c-3.07745,1.66713 -6.15489,3.33426 -9.23234,5.00139c-3.16521,1.71467 -5.92656,3.40338 -8.70051,5.70147c-2.69523,2.23287 -5.39047,4.46574 -8.0857,6.69862c-2.69523,2.23287 -5.39047,4.46574 -8.0857,6.69862c-2.69523,2.23287 -5.39047,4.46574 -8.0857,6.69862c-2.69523,2.23287 -5.39047,4.46574 -8.0857,6.69862c-2.69523,2.23287 -5.39047,4.46574 -8.0857,6.69862c-2.69523,2.23287 -5.39047,4.46574 -8.0857,6.69862c-2.28826,1.89572 -4.74929,3.69401 -6.85035,5.79508c0,0 -0.17678,0.17678 -0.35355,0c-0.17678,-0.17678 0,-0.35355 0,-0.35355c2.11226,-2.11226 4.5845,-3.92077 6.88493,-5.82656c2.69523,-2.23287 5.39047,-4.46574 8.0857,-6.69862c2.69523,-2.23287 5.39047,-4.46574 8.0857,-6.69862c2.69523,-2.23287 5.39047,-4.46574 8.0857,-6.69862c2.69523,-2.23287 5.39047,-4.46574 8.0857,-6.69862c2.69523,-2.23287 5.39047,-4.46574 8.0857,-6.69862c2.69523,-2.23287 5.39047,-4.46574 8.0857,-6.69862c2.79765,-2.31772 5.58961,-4.02704 8.78133,-5.75607c3.07745,-1.66713 6.15489,-3.33426 9.23234,-5.00139c3.07745,-1.66713 6.15489,-3.33426 9.23234,-5.00139c3.07745,-1.66713 6.15489,-3.33426 9.23234,-5.00139c3.09644,-1.67742 6.21654,-3.26197 9.56592,-4.38924c3.32768,-1.1191 6.77911,-1.65357 10.12028,-2.7417c3.35727,-1.09338 6.57711,-2.18018 9.74127,-3.75832c3.13198,-1.56208 6.26122,-3.12966 9.39164,-4.69487c0.66124,-0.33062 2.5357,-2.01144 3.25628,-1.60019c0.45927,0.26212 0.31787,1.26763 0.32613,1.68392c0.03634,1.83297 0.07269,3.66595 0.10903,5.49892c0.06902,3.48103 -0.55285,7.01915 -0.91948,10.48094c-0.36862,3.48053 -0.73724,6.96107 -1.10586,10.4416c-0.36862,3.48053 -0.73724,6.96107 -1.10586,10.4416c-0.36862,3.48053 -0.73724,6.96107 -1.10586,10.4416c-0.36862,3.48053 -0.73724,6.96107 -1.10586,10.4416c-0.36862,3.48053 -0.73724,6.96107 -1.10586,10.4416c-0.36862,3.48053 -0.73724,6.96107 -1.10586,10.4416c-0.36971,3.49088 -0.91714,6.94023 -1.46712,10.40692c-0.5484,3.45677 -1.0968,6.91354 -1.6452,10.37031c-0.5484,3.45677 -1.0968,6.91354 -1.6452,10.37031c-0.5484,3.45677 -1.0968,6.91354 -1.6452,10.37031c-0.55575,3.50309 -0.98867,6.83538 -1.00078,10.38699c-0.00682,1.99969 -0.00309,3.99945 -0.00312,5.99915c-0.00001,0.53982 -0.26339,1.92886 -0.02785,2.38537c0.17989,0.34866 1.09924,0.73992 1.42332,1.02417c2.84619,-1.92757 5.77986,-3.75839 8.63135,-5.69314c2.89625,-1.96512 5.79251,-3.93025 8.68876,-5.89537c2.89625,-1.96512 5.79251,-3.93025 8.68876,-5.89537c2.9204,-1.9815 5.74155,-3.88737 8.35846,-6.25893c2.59346,-2.35031 5.18692,-4.70062 7.78038,-7.05094c2.59346,-2.35031 5.18692,-4.70062 7.78038,-7.05094c2.59346,-2.35031 5.18692,-4.70062 7.78038,-7.05094c2.59346,-2.35031 5.18692,-4.70062 7.78038,-7.05094c2.59346,-2.35031 5.18692,-4.70062 7.78038,-7.05094c2.59346,-2.35031 5.18692,-4.70062 7.78038,-7.05094c2.59346,-2.35031 5.18692,-4.70062 7.78038,-7.05094c2.59346,-2.35031 5.18692,-4.70062 7.78038,-7.05094c2.58719,-2.34427 5.03159,-4.86584 7.53543,-7.2992c2.50995,-2.43929 5.01991,-4.87858 7.52986,-7.31787c2.50995,-2.43929 5.01991,-4.87858 7.52986,-7.31787c2.50995,-2.43929 5.01991,-4.87858 7.52986,-7.31787c2.51173,-2.44102 4.9686,-4.95243 7.62097,-7.24035c2.65157,-2.28723 5.29691,-4.58004 7.98608,-6.823c2.59658,-2.16574 5.08833,-5.17904 8.02899,-6.77247c2.85484,-1.53413 5.44305,-4.68512 7.87382,-6.84128c2.61835,-2.32255 5.2367,-4.6451 7.85506,-6.96765c2.62391,-2.32748 5.28452,-4.59164 7.99029,-6.82337c2.70007,-2.22702 5.40014,-4.45405 8.1002,-6.68107c2.71855,-2.24226 5.32139,-4.50606 7.84232,-6.96861c1.63866,-1.12339 8.54392,-6.4078 8.57022,-2.47547c-0.00167,3.22324 -1.33558,7.22072 -2.2398,10.31665c-0.98124,3.35964 -1.96248,6.71927 -2.94373,10.07891c-0.98124,3.35964 -1.96248,6.71927 -2.94373,10.07891c-0.98124,3.35964 -1.96248,6.71927 -2.94373,10.07891c-0.98124,3.35964 -1.96248,6.71927 -2.94373,10.07891c-0.98124,3.35964 -1.96248,6.71927 -2.94373,10.07891c-0.98124,3.35964 -1.96248,6.71927 -2.94373,10.07891c-0.98433,3.37021 -1.64581,6.76268 -2.31957,10.20736c-0.67185,3.43491 -1.3437,6.86982 -2.01556,10.30473c-0.67185,3.43491 -1.3437,6.86982 -2.01556,10.30473c-0.67009,3.42588 -1.4431,6.84935 -1.93827,10.30493c-0.49646,3.46461 -0.99293,6.92922 -1.48939,10.39383c-0.28483,1.98767 -0.67135,3.94729 -1.05981,5.9171c-0.0598,0.30324 -0.45212,1.53686 -0.28194,1.7931c0.40419,0.60861 1.57156,-0.21259 1.96832,-0.40748c3.18566,-1.5648 6.50901,-2.50029 9.89766,-3.54306c3.38311,-1.04106 6.69962,-1.95998 10.17058,-2.65785c3.44555,-0.69276 6.87545,-1.29991 10.35355,-1.80498c3.40181,-0.49399 6.56751,-2.28213 9.71696,-3.64485c3.17298,-1.3729 6.10415,-3.42719 9.07037,-5.20223c3.00331,-1.79725 6.00663,-3.5945 9.00994,-5.39175c3.00323,-1.7972 6.00467,-3.59738 9.00582,-5.39806c3.00613,-1.80367 6.16394,-3.31816 9.16499,-5.11063c3.07089,-1.83419 6.21374,-3.08709 9.41058,-4.64667c3.04722,-1.48573 6.88011,-1.66671 10.24252,-2.27392c3.44599,-0.62231 6.83792,-1.41791 10.24689,-2.21707c3.40016,-0.79709 6.79888,-1.60067 10.20079,-2.39027c3.05968,-1.35153 6.73614,-2.41206 9.51302,-4.26844c2.91352,-1.93944 5.82703,-3.87888 8.74055,-5.81832c2.90606,-1.93447 5.80716,-3.87665 8.71907,-5.8023c2.42013,-2.51601 4.85456,-5.01841 7.28231,-7.52707c2.43398,-2.5151 4.86797,-5.0302 7.30195,-7.5453c2.43398,-2.5151 4.86797,-5.0302 7.30195,-7.5453c2.4309,-2.51192 4.7809,-5.15423 7.39331,-7.47709c2.63487,-2.34283 5.22613,-4.75005 7.92148,-7.02291c0.83957,-0.04008 2.39941,-0.35665 3.18363,-0.04343c1.95188,0.77958 3.80932,4.80281 2.9658,6.66754c-1.48726,3.17661 -2.69303,6.45161 -4.25174,9.5995c-1.54446,3.11913 -2.65461,6.4642 -3.75586,9.75896c-1.10971,3.32006 -2.8558,6.41486 -4.40123,9.55393c-1.53657,3.1192 -2.733,6.45116 -4.07584,9.65913c-1.34836,3.22116 -2.72191,6.44134 -3.84003,9.75021c-1.13041,3.34522 -2.4735,6.42305 -3.58654,9.75297c-0.46362,1.38464 -1.28646,2.77671 -1.66251,4.15647c-0.52586,1.92944 -0.17385,3.94529 -0.75584,5.91653c-0.60543,2.05066 -1.86751,3.93446 -2.28787,6.04405c-0.29112,1.46101 0.14548,2.6322 -0.75656,3.90825c-0.50548,0.68296 -0.17837,1.52733 -0.37899,2.3211c-0.69235,2.73935 -2.00504,4.61441 -2.00548,7.56152c-0.00005,0.32532 -0.00008,0.65064 -0.00008,0.97596c0.44006,-0.63966 1.48319,-0.98418 2.11985,-1.33344c2.0533,-1.12639 4.15458,-2.0527 6.10996,-3.35118c2.21725,-1.47238 5.00226,-2.00095 7.31655,-2.85258c0.77591,-0.28552 1.65494,0.23988 2.28942,-0.37175c1.97478,-1.7736 7.74903,-0.73505 10.41103,-0.73505c2.5,0 5,0 7.5,0h0.00318c0,0 0.25,0 0.25,0.25z" fill="#ffffff"/></g></g></svg>