<svg version="1.1" xmlns="http://www.w3.org/2000/svg" xmlns:xlink="http://www.w3.org/1999/xlink" width="480.58137" height="228.63459" viewBox="0,0,480.58137,228.63459"><g transform="translate(-1.27122,0.71122)"><g data-paper-data="{&quot;isPaintingLayer&quot;:true}" fill-rule="nonzero" stroke="none" stroke-linecap="butt" stroke-linejoin="miter" stroke-miterlimit="10" stroke-dasharray="" stroke-dashoffset="0" style="mix-blend-mode: normal"><path d="M476.85259,225.42336c0,-1.38071 1.11929,-2.5 2.5,-2.5c1.38071,0 2.5,1.11929 2.5,2.5c0,1.38071 -1.11929,2.5 -2.5,2.5c-1.38071,0 -2.5,-1.11929 -2.5,-2.5z" fill="#04ff00" stroke-width="0.5"/><path d="M479.77655,226.63907c0,0.25 -0.25,0.25 -0.25,0.25h-0.33499c-1.33334,0 -2.66667,0 -4.00001,-0.00001c-2.47846,-0.00009 -5.06222,0.19366 -7.52509,-0.09762c-0.99408,-0.11757 -1.79032,-0.91557 -2.77997,-0.90237c-3.5,0 -7,0 -10.5,0c-3.50167,-0.00001 -7.00297,0.01557 -10.50412,-0.04785c-1.06526,-0.02757 -1.84666,-0.75851 -2.8587,-0.95706c-2.31741,-0.45466 -5.09048,0.06042 -7.4613,-0.03292c-3.52529,-0.13907 -6.80849,-0.94885 -10.39194,-1.0411c-3.53873,-0.82957 -6.72965,-0.92044 -10.36028,-0.9229c-3.53766,-0.0024 -6.95744,-0.99816 -10.38562,-0.99816c-3.5003,0 -7.00357,0.04107 -10.5035,-0.00857c-3.23823,-0.04596 -7.15938,-0.93098 -10.34627,-1.66228c-3.30488,-0.75837 -7.01665,-0.32914 -10.40609,-0.32916c-3.50005,-0.00001 -7.0001,-0.00022 -10.50015,-0.0024c-3.54279,-0.00222 -6.89726,-0.99121 -10.41186,-1.00924c-3.56982,-0.01831 -6.94529,-0.29354 -10.48077,-0.78444c-3.42041,-0.47492 -6.99868,-0.20392 -10.45136,-0.20392c-3.5,0 -7,0 -10.5,0c-3.5,0 -7,0 -10.5,0c-3.5,0 -7,0 -10.5,0c-3.50006,0 -7.00013,0.0017 -10.50019,-0.00089c-1.96404,-0.00146 -4.08271,0.1962 -6.03094,-0.05049c-1.46374,-0.18534 -2.87278,-0.94577 -4.35605,-0.95394c-0.852,-0.00771 -3.02446,0.33273 -3.64281,-0.42006c-0.97218,-1.18355 -0.62522,-3.54239 -1.10402,-4.87455c-0.27001,-0.75124 -0.89398,-0.88055 -0.9141,-1.78505c-0.00046,-3.49214 -0.02777,-6.98277 -0.06243,-10.47468c-0.68561,-3.55748 -0.93619,-6.81554 -0.93779,-10.43645c-0.0015,-3.37749 0.40997,-7.11838 -0.23328,-10.43402c-0.68851,-3.54896 -0.76581,-6.86364 -0.768,-10.47425c-0.00218,-3.60236 -0.99839,-6.79373 -0.99839,-10.34582c0,-0.39073 0.2606,-2.61973 0.055,-2.82127c-0.09394,-0.09208 -1.60301,0.07148 -1.82499,0.07149c-1.89869,0.00004 -3.52977,0.13229 -5.38118,0.5561c-2.02757,0.46413 -3.93925,0.28081 -5.97329,0.53624c-1.48846,0.18691 -2.91755,0.90271 -4.42713,0.90798c-3.46807,0.00147 -7.01984,-0.19286 -10.47402,0.11395c-3.45869,0.30721 -7.01169,0.88405 -10.4829,0.88571c-3.49996,0 -6.99993,-0.00002 -10.49989,0.0002c-3.38544,0.00267 -7.10529,-0.38763 -10.3994,0.40675c-3.44894,0.83172 -6.94889,0.59305 -10.48894,0.59305c-3.5,0 -6.99999,-0.00008 -10.49999,0.00007c-3.49986,0.00016 -6.99968,0.00488 -10.49953,0.01143c-3.5346,0.00661 -6.91088,0.38618 -10.41463,0.83956c-3.47106,0.44915 -6.94212,0.89831 -10.41318,1.34746c-3.48274,0.45067 -6.94569,0.87283 -10.44746,1.14167c-3.49008,0.26795 -6.97958,0.54518 -10.47087,0.7969c-3.49094,0.25169 -6.98188,0.50339 -10.47281,0.75508c-3.48851,0.25152 -6.96782,0.62602 -10.44901,0.96351c-3.47843,0.33722 -7.01472,-0.11627 -10.47981,0.30255c-3.51463,0.42481 -6.93715,0.84177 -10.47942,0.84177c-3.5,0 -7,0 -10.5,0c-3.50002,-0.00003 -7.00004,-0.00006 -10.50006,-0.0009c-3.50095,-0.00084 -7.00122,-0.00608 -10.50203,-0.03771c-3.54527,-0.03203 -6.83249,-0.96206 -10.38823,-0.98439c-3.4477,-0.02165 -6.98806,-1.09362 -10.38001,-1.72262c-3.22833,-0.59866 -7.05863,-1.25006 -10.30238,-1.26565c-3.52663,-0.01695 -6.98334,-0.28216 -10.49551,-0.59273c-3.50513,-0.30994 -6.94173,-0.39043 -10.45998,-0.38339c-2.26482,0.00453 -6.88929,-0.71809 -8.52154,0.91417c0,0 -0.17678,0.17678 -0.35355,0c-0.17678,-0.17678 0,-0.35355 0,-0.35355c1.78198,-1.78198 6.43043,-1.05572 8.8741,-1.06061c3.53303,-0.00707 6.98511,0.07408 10.50502,0.38533c3.49846,0.30935 6.94107,0.5739 10.45387,0.59079c3.26367,0.01569 7.14311,0.67172 10.39114,1.27403c3.36162,0.62338 6.87553,1.6928 10.29199,1.71425c3.55722,0.02233 6.84595,0.95238 10.38961,0.9844c3.49935,0.03161 6.99816,0.03684 10.49764,0.03768c3.49998,0.00084 6.99996,0.00087 10.49994,0.0009c3.5,0 7,0 10.5,0c3.52216,0 6.92453,-0.41574 10.41942,-0.83816c3.46974,-0.41938 7.00906,0.03379 10.49156,-0.30382c3.48529,-0.33789 6.96869,-0.71273 10.4613,-0.96455c3.49094,-0.25169 6.98188,-0.50339 10.47281,-0.75508c3.49051,-0.25166 6.97925,-0.52883 10.46855,-0.79672c3.49314,-0.26818 6.94741,-0.68945 10.42157,-1.139c3.47106,-0.44915 6.94212,-0.89831 10.41318,-1.34746c3.52425,-0.45604 6.92235,-0.83704 10.47786,-0.84369c3.50016,-0.00655 7.00028,-0.01127 10.50045,-0.01143c3.5,-0.00016 7.00001,-0.00007 10.50001,-0.00007c3.49915,0 6.96363,0.24276 10.37172,-0.57911c3.33505,-0.80426 7.08946,-0.41798 10.5164,-0.42068c3.50004,-0.00022 7.00007,-0.0002 10.50011,-0.0002c3.45523,0.00173 6.99583,-0.57795 10.43867,-0.88375c3.46901,-0.30812 7.03513,-0.11443 10.51805,-0.11591c1.48047,0.00447 2.90299,-0.72049 4.36504,-0.90409c2.01831,-0.25345 3.9141,-0.06743 5.92402,-0.52752c1.88511,-0.43152 3.56008,-0.56866 5.49274,-0.5687c0.39766,-0.00001 1.89357,-0.20443 2.17501,0.07144c0.41275,0.40458 0.095,2.60267 0.095,3.17834c0,3.54699 0.99621,6.74347 0.99839,10.34552c0.00217,3.58032 0.07626,6.86091 0.75884,10.37932c0.6497,3.3489 0.24092,7.11812 0.24243,10.52902c0.0016,3.60895 0.26611,6.84016 0.93529,10.38668c0.04848,3.5084 0.06447,7.0159 0.06493,10.5246c-0.02323,0.76748 0.64126,0.93889 0.88463,1.616c0.46398,1.29091 0.10028,3.60678 1.01985,4.7263c0.45015,0.54802 2.62341,0.23168 3.26096,0.23745c1.51112,0.01843 2.92572,0.76939 4.41433,0.95788c1.92661,0.24395 4.02589,0.04509 5.9685,0.04653c3.49994,0.0026 6.99988,0.00089 10.49981,0.00089c3.5,0 7,0 10.5,0c3.5,0 7,0 10.5,0c3.5,0 7,0 10.5,0c3.47621,0 7.07628,-0.26951 10.52013,0.20867c3.51446,0.48798 6.86605,0.76149 10.41457,0.77969c3.51569,0.01803 6.86794,1.00704 10.40961,1.00923c3.49995,0.00218 6.9999,0.00238 10.49984,0.0024c3.42926,0.00001 7.1736,-0.4256 10.51792,0.34182c3.16383,0.72601 7.02891,1.60406 10.24153,1.64966c3.49756,0.04969 6.99848,0.00852 10.4964,0.00852c3.43312,0 6.8458,0.99576 10.38596,0.99816c3.64381,0.00247 6.87274,0.07388 10.42377,0.92699c3.57307,0.07229 6.8362,0.89886 10.34782,1.03739c2.39992,0.09487 5.18993,-0.41875 7.53785,0.04189c0.97077,0.19046 1.76032,0.93891 2.77149,0.94779c3.49812,0.06336 6.99642,0.04777 10.49506,0.04777c3.5,0.00001 7,0 10.5,0c0.93523,0.01004 1.5158,0.61133 2.38008,0.85614c2.34425,0.66404 5.49942,0.14375 7.92499,0.14384c1.33333,0.00001 2.66666,0.00001 3.99999,0.00001h0.33499c0,0 0.25,0 0.25,0.25z" fill="#ffffff" stroke-width="0.5"/><text transform="translate(139.52655,20.63907) scale(0.5,0.5)" font-size="40" xml:space="preserve" fill="#707070" fill-rule="nonzero" stroke="none" stroke-width="1" stroke-linecap="butt" stroke-linejoin="miter" stroke-miterlimit="10" stroke-dasharray="" stroke-dashoffset="0" font-family="Sans Serif" font-weight="normal" text-anchor="start" style="mix-blend-mode: normal"><tspan x="0" dy="0">arrow keys to move</tspan></text></g></g></svg>